<?xml version='1.0' encoding='utf-8'?>
<svg xmlns="http://www.w3.org/2000/svg" version="1.1" width="1054px" height="753px" viewBox="-80 625 1054 753"> <g id="layer1"> <g style="fill:rgb(0,174,199); fill-opacity:1.0; stroke-linejoin: miter"> <path d="M-85.921234,620.31555C-86.07315,620.31555,-86.21887,620.37585,-86.32623,620.48315C-86.433685,620.5906,-86.49405,620.7363,-86.49405,620.8883L-86.49338,1382.1118C-86.49338,1382.4282,-86.23691,1382.685,-85.92056,1382.685L979.92303,1382.6855C980.07513,1382.6855,980.22076,1382.6252,980.32806,1382.5176C980.4355,1382.4104,980.49603,1382.2646,980.49603,1382.1128L980.4952,620.8888C980.4952,620.57263,980.23883,620.31616,979.9224,620.31616L-85.921234,620.31555 Z"/> </g> <g style="fill:rgb(0,0,0); fill-opacity:1.0; stroke-linejoin: miter"> <path d="M302.7188,1060.6909C305.99396,1050.96,313.54883,1042.949,323.27124,1038.9175C326.2987,1037.6614,328.50964,1037.0459,332.70966,1036.2996C335.00824,1035.875,339.37244,1035.8276,342.94733,1036.175C344.61145,1036.335,348.29388,1037.1309,350.2329,1037.7471C358.60828,1040.4324,365.3476,1045.2937,370.411,1052.2856C373.95367,1057.1797,376.4109,1063.4578,377.0163,1069.175C377.13348,1070.2668,377.24237,1071.323,377.2627,1071.5134C377.31097,1071.8628,377.45392,1071.8982,451.03003,1090.157L524.7448,1108.4661L525.34143,1108.9854C526.0295,1109.612,526.50415,1110.6914,526.53766,1111.7119C526.5584,1112.24,526.12494,1114.123,525.0323,1118.3901C523.5569,1124.1306,523.48584,1124.3491,522.99835,1124.886C521.9954,1126.0037,520.87213,1126.3154,519.09686,1125.9929L517.83746,1125.7646L515.30176,1135.9829L512.76227,1146.2168L506.8026,1144.7397L500.84387,1143.259L501.98743,1138.6506L503.1311,1134.0425L499.73834,1133.2339L496.35773,1132.4456L495.5885,1135.342L494.83875,1138.2263L490.6277,1137.1812L486.41638,1136.1362L488.54572,1127.5549L490.6754,1118.9739L431.9339,1104.4304L373.1883,1089.9023L372.38837,1091.2222C365.9265,1102.1028,354.08856,1108.8821,341.01245,1109.2307C336.00482,1109.3542,330.43616,1108.4109,325.7909,1106.6677C313.68323,1102.0942,304.695,1092.0195,301.8147,1079.8328C300.7627,1075.3711,300.63928,1070.7017,301.42926,1065.887C301.79852,1063.5833,301.9248,1063.075,302.7188,1060.6909 Z M315.9442,1070.8892C315.70392,1078.8599,319.58075,1086.3506,326.2915,1090.8501C336.028,1097.3655,349.18207,1096.0916,357.02252,1087.8816C364.24115,1080.344,365.12244,1068.8381,359.15106,1060.2039C355.71527,1055.2175,350.9323,1051.9221,345.04065,1050.4436C338.70013,1048.8699,332.37585,1049.7463,326.97278,1052.9602C324.57666,1054.3904,323.18488,1055.513,321.6153,1057.2822C319.76453,1059.3706,318.63574,1061.1316,317.56403,1063.6155C316.89154,1065.169,316.00092,1069.1658,315.9442,1070.8892 Z"/> </g> <g style="fill:rgb(0,0,0); fill-opacity:1.0; stroke-linejoin: miter"> <path d="M186.57907,1054.5879L191.67352,1055.1757Q221.21945,1058.9154,229.30899,1055.5139Q280.52573,1015.04126,298.8182,1014.199Q299.98547,1013.9525,305.17102,1014.43677L320.18628,1017.36414Q344.69818,1019.656,350.6233,1021.6858Q366.43607,1025.7877,383.62915,1035.5543Q401.04544,1045.7264,405.14,1052.2399Q409.39676,1059.4396,402.06116,1060.8538Q395.248,1061.2987,389.5953,1059.2347Q384.82858,1058.1343,358.00458,1046.9067Q351.49728,1044.3954,346.6196,1043.2046Q338.02725,1041.0743,329.02423,1041.3738Q348.99377,1056.504,356.7271,1065.8645Q358.63895,1067.9724,362.72903,1073.5239L375.01212,1091.744L385.2317,1105.3876Q391.2813,1114.8789,381.98016,1121.0969Q374.38138,1122.7416,368.3338,1116.0956Q366.78635,1116.3267,339.1844,1080.2324Q331.27768,1071.4617,323.35892,1066.7617L359.4931,1122.6508Q363.5994,1130.7991,363.13565,1132.908Q363.15836,1136.2213,360.90442,1137.6007Q353.73233,1140.7743,342.3122,1127.95Q332.2258,1116.6178,310.82483,1079.396Q334.7919,1113.5499,337.97403,1123.2235Q341.82004,1133.1989,340.8855,1135.5182Q340.27606,1138.8181,336.78592,1138.2755Q330.26645,1136.7924,324.48746,1131.4412Q320.8947,1128.4014,315.17447,1119.9197L294.58466,1099.5383Q255.87427,1119.3239,242.25523,1120.1567Q236.6064,1120.7491,231.88678,1120.1443Q224.88025,1119.143,218.65895,1117.1309L188.25989,1114.1161L186.57907,1054.5879 Z"/> </g> <g style="fill:rgb(255,255,255); fill-opacity:1.0; stroke-linejoin: miter"> <path d="M221.2768,1036.2661L221.06396,1131.6653L181.62659,1133.4346Q173.58472,1089.116,174.07672,1073.8896Q173.76227,1057.4275,182.15942,1038.3696L221.2768,1036.2661 Z"/> </g> <g style="fill:rgb(0,0,0); fill-opacity:1.0; stroke-linejoin: miter"> <path d="M206.69617,1026.1829L-85.96103,1027.9856L-85.95892,1146.3447L207.42505,1144.5427L206.69617,1026.1829 Z"/> </g> <g style="fill:rgb(0,0,0); fill-opacity:1.0; stroke-linejoin: miter"> <path d="M753.4323,970.2894L753.98395,970.29297Q766.8143,970.75757,774.38043,979.0885Q782.509,988.3793,781.94196,998.8972Q781.4351,1016.0597,764.5373,1024.3958L762.20123,1058.0774Q761.9637,1062.1904,760.97736,1064.8247Q756.99945,1071.1816,751.2127,1071.5828Q745.3112,1071.5793,743.9744,1070.1987Q740.0484,1067.8923,738.5267,1063.9824Q737.42194,1060.5105,737.67303,1058.5012Q737.7596,1053.2852,739.8908,1022.5381Q733.5214,1018.79346,729.6805,1012.20593Q725.69244,1005.6122,726.086,997.98303Q726.1799,986.33936,734.1075,978.55383Q741.73175,970.80725,753.4323,970.2894 M738.3957,891.9669L737.0538,891.98816Q693.07526,891.1017,652.82587,913.00745Q618.87555,933.55493,603.84174,966.6904Q588.1082,1006.7113,598.55035,1023.8313L564.4062,1075.812Q556.729,1088.8079,556.79834,1094.2327Q556.348,1099.0854,562.6982,1103.0315Q571.69464,1108.5007,583.1181,1109.123Q585.31537,1109.9495,586.2122,1112.1956Q587.16156,1112.6272,584.4472,1124.7488Q578.31976,1135.2974,579.559,1135.6396Q578.30927,1139.271,589.1152,1146.1787Q590.4284,1146.3477,583.7564,1155.2126Q583.07855,1156.3699,583.2325,1157.81Q594.9676,1170.2639,594.3536,1173.9104L589.8969,1196.8179Q588.98846,1201.4456,590.3934,1206.356Q597.62726,1221.4934,617.3631,1224.4119L671.05365,1220.6526Q675.8133,1225.2,679.87103,1235.645L682.5076,1243.3491L679.3875,1244.4097Q686.36456,1257.4807,685.8903,1260.3096Q686.2779,1261.0654,684.45685,1264.5159Q673.846,1276.7166,668.98846,1284.1033L890.38824,1284.1062Q884.17316,1278.197,881.6097,1272.7742Q879.43976,1270.489,877.9853,1253.5923Q877.008,1249.0171,875.2259,1244.3398L858.3216,1213.8457Q849.36615,1177.3638,847.4428,1154.0244Q846.51825,1146.1694,850.85785,1133.7817Q852.8848,1128.2571,856.4742,1121.269Q875.8625,1087.8865,876.2139,1085.1797Q880.69476,1073.5684,884.31354,1055.1914Q892.1401,1009.6832,878.64935,974.9321Q861.2026,933.93335,830.1601,915.88184Q786.669,890.77686,738.3957,891.9669 Z"/> </g> <g style="fill:rgb(0,0,0); fill-opacity:1.0; stroke-linejoin: miter"> <path d="M830.77094,987.27325L830.77094,987.27325Q827.9618,1027.496,832.0336,1059.4207C832.0894,1059.8582,832.1166,1060.2986,832.1149,1060.7396L832.1149,1060.7396Q832.0841,1068.9045,829.707,1076.9542C829.5797,1077.3851,829.42395,1077.807,829.24066,1078.2172L829.24066,1078.2172Q812.0335,1116.7242,783.8075,1131.9497L784.8699,1131.2888Q759.26025,1149.5079,729.44867,1143.1302L729.85736,1143.2089Q707.83746,1139.4371,689.1586,1113.454L689.58923,1114.011Q676.1264,1097.7935,676.2612,1046.0479C676.2614,1045.9863,676.26215,1045.9232,676.2634,1045.8617L676.2634,1045.8617Q676.7421,1023.07184,693.85565,982.5151C694.05756,982.0366,694.296,981.57434,694.56885,981.13245L694.56885,981.13245Q727.8783,927.1828,787.84814,918.7262C787.9346,918.714,788.02057,918.703,788.1073,918.69305L788.1073,918.69305Q840.1541,912.7191,866.08734,958.89905C868.8249,963.77386,867.0923,969.94495,862.21747,972.6825C857.34265,975.42004,851.1716,973.68744,848.434,968.8126L848.434,968.8126Q829.0911,934.3683,790.416,938.80743L790.6752,938.7743Q740.114,945.9041,711.79626,991.7689L712.50946,990.3863Q696.9028,1027.3721,696.5055,1046.2867L696.5077,1046.1006Q696.392,1090.5078,705.1675,1101.0789C705.31726,1101.2593,705.4612,1101.4454,705.5981,1101.6359L705.5981,1101.6359Q719.4339,1120.8822,733.2756,1123.253C733.41187,1123.2764,733.549,1123.3027,733.68427,1123.3317L733.68427,1123.3317Q754.78357,1127.8456,773.1332,1114.7913C773.4734,1114.5492,773.8281,1114.3286,774.19556,1114.1304L774.19556,1114.1304Q796.35895,1102.1752,810.7558,1069.9572L810.2895,1071.2201Q811.84863,1065.9402,811.8686,1060.6632L811.9499,1061.9822Q807.6255,1028.0768,810.57367,985.86273C810.9632,980.2854,815.80023,976.07983,821.37756,976.46936C826.9549,976.8589,831.16046,981.6959,830.77094,987.27325 Z"/> </g> <g style="fill:rgb(0,0,0); fill-opacity:1.0; stroke-linejoin: miter"> <path d="M806.3024,935.9606Q805.2308,941.97815,806.0015,952.6775L812.33966,1003.4326Q812.32355,1033.7654,811.2402,1034.9592Q810.8818,1044.5737,798.4267,1068.1304Q793.6995,1076.884,782.0877,1088.2864Q755.57904,1114.1016,731.9981,1096.9121Q700.27386,1072.3108,702.0412,1032.9905Q702.0644,1012.6692,711.8167,987.58496Q725.4411,956.871,741.35004,942.5741Q763.33136,925.05237,773.3438,926.00305Q787.476,925.1968,806.2769,937.2855 Z"/> </g> <g style="fill:rgb(0,174,199); fill-opacity:1.0; stroke-linejoin: miter"> <path d="M736.2973,978.042L736.288,978.04285Q728.8382,978.93616,724.336,984.2556L724.3359,984.2566Q719.6425,989.6157,720.1425,997.06165L720.1424,997.0626Q720.2597,1001.9591,723.12775,1005.984Q725.8676,1009.9625,730.0546,1012.0475L730.04706,1012.048Q730.1619,1031.5037,730.3554,1034.802L730.3543,1034.8022Q730.29645,1036.1218,731.16925,1038.2874L731.1739,1038.2976Q732.3499,1040.7561,734.9998,1042.0566L734.99225,1042.0571Q735.9909,1042.8865,739.7415,1042.6064L739.7541,1042.6052Q743.4882,1042.0623,745.7459,1037.7681L745.7596,1037.7341Q746.26605,1035.9946,746.2204,1033.3547L746.09564,1012.0398L746.08795,1012.0403Q756.3909,1005.91174,755.89435,994.9652L755.8942,994.9662Q755.75055,988.2086,750.112,982.66455L750.10956,982.6621Q744.86945,977.698,736.65216,978.01807L736.64667,978.0183L736.2973,978.042 Z"/> </g> <g style="fill:rgb(0,0,0); fill-opacity:1.0; stroke-linejoin: miter"> <path d="M946.40063,1285.2343L943.13354,1285.599Q919.9056,1286.7013,807.204,1287.362Q693.7224,1288.0223,539.9395,1287.8976Q393.17368,1287.7231,305.1795,1286.8767Q276.98523,1286.6031,258.73254,1286.2805L243.39166,1285.9489Q230.74937,1285.6064,230.60724,1285.2343Q234.44507,1284.092,335.43274,1283.3336Q436.42044,1282.5752,588.50397,1282.5464Q740.5874,1282.5752,841.5751,1283.3336Q942.5628,1284.092,946.40063,1285.2343"/> </g> </g> </svg>