<?xml version='1.0' encoding='utf-8'?>
<svg xmlns="http://www.w3.org/2000/svg" version="1.1" width="1656px" height="1183px" viewBox="-288 473 1656 1183"> <g id="layer1"> <g style="fill:rgb(0,174,199); fill-opacity:1.0; stroke-linejoin: miter"> <path d="M-288.001,472.0289C-288.2583,472.0289,-288.50507,472.1311,-288.68698,472.31302C-288.8689,472.49493,-288.9711,472.7417,-288.9711,472.999L-288.9701,1656.0C-288.9701,1656.5358,-288.53577,1656.9701,-288.0,1656.9701L1368.001,1656.9711C1368.2583,1656.9711,1368.505,1656.8688,1368.6869,1656.6869C1368.8688,1656.505,1368.9711,1656.2583,1368.9711,1656.001L1368.9701,473.0C1368.9701,472.46423,1368.5358,472.0299,1368.0,472.0299L-288.001,472.0289 Z"/> </g> <g style="fill:rgb(0,0,0); fill-opacity:0.27450982; stroke-linejoin: miter"> <path d="M1236.3326,1447.7505L1230.4824,1451.6042Q1188.8905,1463.2512,987.08716,1470.2341Q783.88696,1477.2114,508.52322,1475.8927Q245.72435,1474.0494,88.16195,1465.1057Q37.677208,1462.2147,4.9939613,1458.8055L-22.475418,1455.3007Q-45.112694,1451.6831,-45.36721,1447.7505Q-38.49518,1435.6815,142.3334,1427.6676Q323.162,1419.6536,595.4828,1419.349Q867.80334,1419.6536,1048.6321,1427.6676Q1229.4606,1435.6815,1236.3326,1447.7505"/> </g> <g style="fill:rgb(103,118,120); fill-opacity:0.99607843; stroke-linejoin: miter"> <path d="M265.01093,1364.0002L264.96246,1364.0206L256.32446,1372.7638L256.3241,1372.7643L248.6059,1380.6636L248.65498,1380.7795L425.25937,1379.5154L425.26062,1379.5135L602.9568,1378.1412L603.02185,1378.0918L604.7252,1371.8494L604.7251,1371.8499L604.7267,1371.8441C605.5874,1368.8011,606.07214,1366.2605,606.1218,1365.2932L606.1135,1365.2942L606.0768,1365.3372L606.06714,1365.2101C601.47363,1364.8713,561.5168,1364.6444,513.4873,1364.4711L513.4801,1364.4722L513.4791,1364.469L507.04572,1364.4581L505.58585,1364.456L504.1038,1364.4531C453.35104,1364.367,383.344,1364.248,342.78055,1364.1217L342.77515,1364.1227L342.77386,1364.1199L265.01093,1364.0002 Z"/> </g> <g style="fill:rgb(103,118,120); fill-opacity:0.99607843; stroke-linejoin: miter"> <path d="M715.5936,1362.5363L715.5912,1362.5363C714.75476,1362.5667,712.9435,1362.6383,710.1178,1362.7537L710.1161,1362.7515L699.27783,1363.1904L678.3772,1364.0371L678.37573,1364.0354C659.5669,1364.7915,643.9402,1365.5272,641.64343,1365.7776L641.65125,1365.9178L641.64307,1365.9187C641.64124,1365.9222,641.6394,1365.9271,641.6376,1365.9315L641.6376,1365.9323L641.5736,1365.8363C641.23364,1366.6608,640.3511,1369.3235,639.44055,1372.4556L639.4404,1372.456L637.7517,1378.3284L637.84375,1378.4501L716.103,1377.9784L716.1979,1377.8821L716.1509,1370.1503C716.1283,1366.4453,715.9164,1363.5657,715.69653,1362.61L715.60315,1362.5359 Z"/> </g> <g style="fill:rgb(0,0,0); fill-opacity:0.99607843; stroke-linejoin: miter"> <path d="M320.24664,1368.9371L320.2468,1368.9393L320.2463,1368.9382L320.24664,1368.9371 Z"/> </g> <g style="fill:rgb(255,255,255); fill-opacity:0.99607843; stroke-linejoin: miter"> <path d="M64.92094,1309.9049L64.92102,1309.9056Q64.92113,1309.9071,64.92094,1309.9049 Z"/> </g> <g style="fill:rgb(255,255,255); fill-opacity:1.0; stroke-linejoin: miter"> <path d="M259.16833,1471.1646L259.16833,1471.1653L259.16833,1471.1646 Z"/> </g> <g style="fill:rgb(60,70,79); fill-opacity:0.99607843; stroke-linejoin: miter"> <path d="M112.36946,771.46875L112.369385,771.4691L112.369385,771.46967L112.369385,771.4691L112.36946,771.46875L112.369385,771.4691L112.369385,771.46967Q112.369385,771.4691,112.36946,771.46875 Z"/> </g> <g style="fill:rgb(60,70,79); fill-opacity:0.99607843; stroke-linejoin: miter"> <path d="M133.30594,714.26404L133.30594,714.26465L133.3061,714.26495L133.30594,714.26465L133.30594,714.26404L133.30594,714.26465L133.3061,714.26495Q133.30594,714.26465,133.30594,714.26404 Z"/> </g> <g style="fill:rgb(60,70,79); fill-opacity:0.99607843; stroke-linejoin: miter"> <path d="M133.30594,714.26404L133.30594,714.26465L133.3061,714.26495L133.30594,714.26465L133.30594,714.26404L133.30594,714.26465L133.3061,714.26495Q133.30594,714.26465,133.30594,714.26404 Z"/> </g> <g style="fill:rgb(60,70,79); fill-opacity:0.99607843; stroke-linejoin: miter"> <path d="M149.4274,662.9736L149.4274,662.97424L149.42749,662.97455L149.4274,662.97424L149.4274,662.9736L149.4274,662.97424L149.42749,662.97455Q149.4274,662.97424,149.4274,662.9736 Z"/> </g> <g style="fill:rgb(60,70,79); fill-opacity:0.99607843; stroke-linejoin: miter"> <path d="M149.4274,662.9736L149.4274,662.97424L149.42749,662.97455L149.4274,662.97424L149.4274,662.9736L149.4274,662.97424L149.42749,662.97455Q149.4274,662.97424,149.4274,662.9736 Z"/> </g> <g style="fill:rgb(60,70,79); fill-opacity:0.99607843; stroke-linejoin: miter"> <path d="M149.4274,662.9736L149.4274,662.97424L149.42749,662.97455L149.4274,662.97424L149.4274,662.9736L149.4274,662.97424L149.42749,662.97455Q149.4274,662.97424,149.4274,662.9736 Z"/> </g> <g style="fill:rgb(60,70,79); fill-opacity:0.99607843; stroke-linejoin: miter"> <path d="M149.4274,662.9736L149.4274,662.97424L149.42749,662.97455L149.4274,662.97424L149.4274,662.9736L149.4274,662.97424L149.42749,662.97455Q149.4274,662.97424,149.4274,662.9736 Z"/> </g> <g style="fill:rgb(60,70,79); fill-opacity:0.99607843; stroke-linejoin: miter"> <path d="M127.28766,753.7167L127.28774,753.7172L127.28783,753.7178L127.28774,753.7172L127.28766,753.7167L127.28774,753.7172L127.28783,753.7178Q127.28774,753.7172,127.28766,753.7167 Z"/> </g> <g style="fill:rgb(34,43,50); fill-opacity:0.99607843; stroke-linejoin: miter"> <path d="M183.59515,683.15533L183.59515,683.1556L183.59515,683.1561L183.59515,683.1556L183.59515,683.15533L183.59515,683.1556L183.59515,683.1561Q183.59515,683.1556,183.59515,683.15533 Z"/> </g> <g style="fill:rgb(34,43,50); fill-opacity:0.99607843; stroke-linejoin: miter"> <path d="M183.59515,683.15533L183.59515,683.1556L183.59515,683.1561L183.59515,683.1556L183.59515,683.15533L183.59515,683.1556L183.59515,683.1561Q183.59515,683.1556,183.59515,683.15533 Z"/> </g> <g style="fill:rgb(255,197,161); fill-opacity:0.99607843; stroke-linejoin: miter"> <path d="M345.23257,1150.8441L347.43176,1151.3418Q369.8202,1156.0624,376.75937,1162.0376L381.962,1166.3271Q409.46524,1193.5049,418.4154,1200.5903Q434.3903,1213.9894,443.5012,1218.4163Q454.778,1224.3267,470.15808,1226.217Q487.7948,1228.4501,494.00653,1225.1576Q518.735,1213.7205,553.6723,1198.7468Q563.9834,1193.7833,567.4888,1191.1898Q572.45825,1187.8673,576.3329,1183.815L593.4419,1163.8168L599.0343,1159.3167L614.3749,1148.9934Q617.18176,1147.0557,622.1317,1140.6294L636.98535,1115.8104Q639.2611,1111.7095,639.624,1107.4868Q637.1459,1088.7767,624.3944,1090.6678L628.798,1053.5076Q628.57764,1043.8516,624.3141,1043.7483Q619.11096,1042.7078,610.7023,1046.1277Q605.1644,1050.0671,599.17786,1057.8748Q592.51074,1065.9377,593.2112,1083.0875Q585.67346,1089.7842,580.94055,1096.7966L566.35706,1124.1118Q563.3922,1129.2446,557.3452,1136.0404Q551.91394,1141.756,546.8657,1144.0822L530.04297,1151.1519Q526.7063,1152.355,525.4793,1152.2183Q524.1671,1152.4884,521.33685,1150.8182Q511.58545,1139.5635,502.04974,1134.8037L494.141,1131.4794Q475.26736,1125.6299,459.65836,1118.9987Q446.52014,1113.3414,438.6511,1107.4238Q433.32608,1103.8782,423.26602,1093.2131L389.8715,1054.6654Q379.45505,1044.7439,375.01593,1043.0017Q359.1508,1033.5905,329.25763,1045.499Q313.2562,1051.3961,294.87897,1063.6649L345.23257,1150.8441 Z"/> </g> <g style="fill:rgb(255,241,232); fill-opacity:0.99607843; stroke-linejoin: miter"> <path d="M498.68832,1142.0364L498.68832,1142.0375Q508.80475,1148.4341,510.71072,1150.9894Q514.27234,1154.6327,514.54944,1159.1687Q514.62134,1160.6667,514.3334,1162.1443Q514.04456,1163.6227,513.42676,1164.9911L512.7342,1166.3097Q510.07364,1170.3859,506.28027,1171.2012Q504.578,1171.6415,501.98904,1171.4889Q501.35623,1171.547,497.6533,1170.8062Q496.93686,1170.7042,492.9843,1169.4822Q490.60373,1168.7313,484.80215,1166.5059L498.68832,1142.0364 Z"/> </g> <g style="fill:rgb(255,255,255); fill-opacity:0.99607843; stroke-linejoin: miter"> <path d="M256.19934,1054.1785L287.72565,1045.1047L319.25192,1036.0308Q337.2966,1098.7236,355.34128,1161.4169L292.28912,1179.5656Q274.24414,1116.8721,256.19934,1054.1785 Z"/> </g> <g style="fill:rgb(34,43,50); fill-opacity:1.0; stroke-linejoin: miter"> <path d="M118.88657,771.09656L118.88083,771.0969L118.88083,771.0978L118.88083,771.0969L118.88657,771.09656 Z M716.14197,1362.5992C716.08984,1362.6118,716.04333,1362.6161,716.00146,1362.6168L716.00037,1362.6179L716.13257,1362.5992 Z M606.44604,1365.3203C606.4706,1365.3247,606.4813,1365.3282,606.4813,1365.3297L606.4767,1365.3304C606.47034,1365.3286,606.4564,1365.3262,606.43787,1365.3203 Z M641.4072,1365.9069C641.3961,1365.91,641.38794,1365.9115,641.3838,1365.9121L641.38086,1365.913C641.38086,1365.9115,641.38635,1365.9094,641.3987,1365.9065 Z M265.01096,1364.0686L342.77386,1364.188L342.77277,1364.189C384.15118,1364.3182,456.05475,1364.4396,507.04556,1364.5266L513.4791,1364.537L513.4778,1364.5376C561.5181,1364.7124,601.46765,1364.9393,606.06213,1365.2781L606.0542,1365.2792C606.00793,1366.2312,605.52454,1368.7728,604.66077,1371.8259L604.6593,1371.8319L602.95605,1378.0735L425.2583,1379.4454L425.25885,1379.4459L248.65454,1380.7114L256.373,1372.8118L265.01096,1364.0686 Z M715.6039,1362.6311C715.82056,1363.575,716.03284,1366.4446,716.05566,1370.151L716.1024,1377.8827L637.8434,1378.355L639.5321,1372.4818C640.443,1369.3492,641.3259,1366.6863,641.66235,1365.8704L641.6538,1365.8718C643.94727,1365.6226,659.56665,1364.8867,678.3794,1364.1306L678.3794,1364.1313L699.282,1363.2856L710.1199,1362.847L710.1199,1362.8478C712.8955,1362.7354,714.80896,1362.6602,715.59436,1362.6316 Z M116.49634,1451.7871L116.49303,1451.7882L116.4891,1451.7872L116.49634,1451.7882 Z M124.91711,770.961C124.913536,770.96094,124.90978,770.96094,124.90602,770.96124L118.88083,771.0969L118.88083,771.0978L118.869545,771.0971C115.58611,771.21686,105.12445,771.87256,95.63781,772.6221L95.63765,772.62286L95.59129,772.62555L95.59118,772.62683L95.54358,772.6295L95.54366,772.63007C78.28858,773.9173,78.072334,773.95245,42.530045,783.9312L42.53013,783.93243C10.006264,792.9254,6.18182,793.99164,6.765789,796.68384L6.774994,796.7211L6.7742996,796.722C7.314373,799.26074,30.280994,938.07355,58.030052,1106.5303L68.391815,1169.4603L76.3773,1217.9589C111.51654,1431.3561,114.56287,1449.6768,115.66838,1451.3501L115.66838,1451.3506C115.87146,1451.6575,116.13481,1451.7703,116.38964,1451.7855L116.386246,1451.7866C116.595604,1452.0204,116.92294,1452.9885,116.93134,1454.391L116.9487,1457.2573C116.94986,1457.434,117.02121,1457.6029,117.147064,1457.7272C117.27272,1457.8513,117.44261,1457.9208,117.61941,1457.9198L774.22974,1453.9398C774.59045,1453.9374,774.88403,1453.6488,774.89185,1453.288L775.35767,1432.3467C775.6836,1420.8779,775.84143,1397.9434,775.74133,1381.4459L775.5602,1351.5164C775.55786,1351.1483,775.25745,1350.8518,774.8893,1350.8536L225.33493,1354.1823L225.31139,1350.3041L225.2838,1345.7601C225.28236,1345.5168,225.1482,1345.2933,224.93369,1345.1777C224.83357,1345.1237,224.72333,1345.0972,224.61331,1345.0979C224.48827,1345.0983,224.36343,1345.1346,224.25458,1345.2052L221.7946,1346.8003L221.77663,1346.8132C221.07729,1347.2997,220.60228,1347.5217,220.33295,1347.6016L220.33295,1347.6024C219.25148,1339.0435,180.73537,1106.2441,179.74374,1102.2123L179.74506,1102.2129C179.74771,1102.2123,179.7156,1102.0842,179.63406,1101.9602L179.63611,1101.9609C179.45804,1101.6968,179.15198,1101.6455,179.13516,1101.6431L179.13535,1101.6438C178.87173,1101.5846,178.37552,1101.5718,177.78767,1101.575C175.10052,1101.5914,168.63393,1101.9896,161.25565,1102.5671L161.25385,1102.5682C154.19373,1103.0625,149.92155,1103.3318,147.15807,1103.3486C143.89854,1103.3684,142.87741,1103.0325,141.91512,1102.3992L141.90044,1102.3901C139.50464,1100.9019,138.38168,1097.6781,139.2706,1094.772L139.27176,1094.7684C140.16763,1091.7717,144.36783,1090.481,161.15335,1089.5743L161.152,1089.5754C170.25598,1089.1663,175.81027,1088.549,176.88615,1087.7614L176.88615,1087.7623C177.02393,1087.6608,177.28912,1087.4237,177.2868,1087.0331C177.28653,1086.9955,177.28293,1086.9604,177.28232,1086.9546L177.28244,1086.9536C177.14052,1085.5107,165.59137,1014.54553,151.42468,928.63135L151.42476,928.632L125.57886,771.51917C125.5254,771.19556,125.24436,770.95905,124.91711,770.961 Z"/> </g> <g style="fill:rgb(34,43,50); fill-opacity:0.99607843; stroke-linejoin: miter"> <path d="M157.59969,1049.8928L164.08414,1048.7903L170.56848,1047.6884Q177.35834,1087.605,184.14816,1127.521Q177.6639,1128.624,171.17973,1129.7283Q164.38971,1089.8108,157.59969,1049.8928 Z"/> </g> <g style="fill:rgb(68,197,229); fill-opacity:0.99607843; stroke-linejoin: miter"> <path d="M46.439766,812.85156L83.25818,801.3162L120.0764,789.78094L206.64957,1337.6161Q174.98975,1369.0883,143.32962,1400.5599L46.439766,812.85156 Z"/> </g> <g style="fill:rgb(34,43,50); fill-opacity:0.99607843; stroke-linejoin: miter"> <path d="M109.41325,1068.2145L189.99242,1049.7943L270.57147,1031.3743Q288.99286,1111.9523,307.41425,1192.531Q226.83546,1210.9532,146.25655,1229.3749Q127.834915,1148.7947,109.41325,1068.2145 Z"/> </g> <g style="fill:rgb(255,255,255); fill-opacity:0.99607843; stroke-linejoin: miter"> <path d="M283.81732,834.6963L482.55106,834.6964L681.28503,834.69666L681.28503,1004.7662Q482.5512,1004.76654,283.81732,1004.76654Q283.81732,919.7314,283.81732,834.6963"/> </g> <g style="fill:rgb(55,72,80); fill-opacity:0.99607843; stroke-linejoin: miter"> <path d="M283.77023,808.4668L482.54498,808.46686L681.3196,808.46686Q681.3196,828.54816,681.3196,848.6296Q482.54498,848.6297,283.77023,848.6299Q283.77023,828.5483,283.77023,808.4668"/> </g> <g style="fill:rgb(255,0,0); fill-opacity:0.99607843; stroke-linejoin: miter"> <path d="M311.0026,831.3553L310.92657,832.4854Q310.38596,835.9013,307.76288,837.94934Q305.12158,839.9957,301.54242,839.6089Q298.1266,839.0682,296.0785,836.4453Q295.42218,835.5975,294.99744,834.5975L294.64032,833.5695Q294.3462,832.5085,294.3429,831.3553Q294.43222,827.81555,296.78262,825.46484Q299.13303,823.1146,302.67267,823.02527Q306.21234,823.1146,308.56284,825.46484Q310.91324,827.81555,311.0026,831.3553"/> </g> <g style="fill:rgb(145,145,145); fill-opacity:0.99607843; stroke-linejoin: miter"> <path d="M317.6876,829.70325L337.87137,829.7035L358.0554,829.70374Q358.0554,832.4808,358.0554,835.2579Q337.87137,835.258,317.6876,835.25824Q317.6876,832.4808,317.6876,829.70325"/> </g> <g> <g style="fill:rgb(255,0,26); fill-opacity:1.0; stroke-linejoin: miter"> <path d="M421.3046,901.8545Q422.60208,901.8529,423.4487,902.47186Q424.23935,903.0915,424.24097,904.27625Q424.24435,906.8146,421.31113,906.8183L418.3216,906.8222Q415.78326,906.8254,413.4146,907.111Q411.10233,907.3962,409.1861,908.5268L409.17728,901.87085 Z M592.8944,901.62714Q594.1915,901.6256,595.0387,902.245Q595.8292,902.8643,595.8308,904.0489Q595.8342,906.5872,592.90076,906.5913L589.91125,906.5951Q587.3729,906.5985,585.0043,906.88367Q582.6918,907.1685,580.7755,908.2995L580.7666,901.64307 Z M532.14355,901.70776Q532.87683,901.70667,533.6666,901.81854Q534.4568,901.874,535.0775,902.1551Q535.64197,902.4365,536.0375,902.9998Q536.433,903.5634,536.4342,904.5224Q536.43616,905.9327,535.4218,906.6672Q534.46387,907.34564,533.16644,907.34705L528.42834,907.35333Q526.0592,907.3568,523.9726,907.7541Q521.94226,908.09515,520.2514,909.0566L520.2417,901.7233 Z M421.31903,912.74146Q423.74463,912.7383,424.8173,913.58264Q425.89014,914.37103,425.89218,916.0069Q425.89362,917.0786,425.49973,917.75616Q425.10565,918.3769,424.48578,918.7728Q423.86575,919.11194,423.01996,919.2821Q422.23022,919.396,421.32788,919.3972L409.20053,919.4136L409.19403,914.44965Q410.15198,913.9407,410.94138,913.60126Q411.73056,913.2615,412.6893,913.0912Q413.64792,912.9206,415.00162,912.8059Q416.29886,912.7477,418.32956,912.74536 Z M592.90894,912.5142Q595.33435,912.5108,596.4072,913.35565Q597.48,914.1438,597.48206,915.77966Q597.4835,916.8515,597.0896,917.52905Q596.69556,918.15,596.0757,918.5457Q595.45557,918.88495,594.60974,919.05536Q593.8202,919.1694,592.9175,919.1705L580.7898,919.1863L580.78345,914.2224Q581.7417,913.7137,582.531,913.374Q583.3202,913.03467,584.27905,912.8642Q585.23755,912.6936,586.5913,912.57904Q587.88855,912.5209,589.9192,912.518 Z M403.35983,896.0683L403.39853,925.28766L421.33557,925.26385Q426.24298,925.2573,429.0037,922.8845Q431.70813,920.51184,431.70233,916.11194Q431.69946,913.96875,430.79446,912.1082Q429.88956,910.24805,428.25244,909.2912Q429.3229,908.3308,429.77243,907.03296Q430.1655,905.73486,430.1635,904.2682Q430.16116,902.40674,429.42584,900.88477Q428.74707,899.4193,427.5046,898.2924Q426.31873,897.2222,424.68204,896.6041Q423.10184,896.042,421.29694,896.0443 Z M514.3112,895.92096L514.3501,925.14105L520.27277,925.1332L520.2593,914.8667Q521.16095,914.4141,521.95044,914.0749Q522.68335,913.7919,523.58545,913.5649Q524.43134,913.3381,525.6157,913.2239Q526.7438,913.16583,528.4359,913.1637L528.8307,913.1631L533.35297,920.4902Q534.3707,922.1247,535.3871,923.08234Q536.4037,923.9834,537.4761,924.4336Q538.54846,924.8833,539.6768,924.9944Q540.74854,925.10596,541.8767,925.1043L544.415,925.10114L544.4065,918.8394L542.3761,918.8423Q541.8684,918.84283,541.1914,918.73114Q540.5708,918.6754,539.89355,918.39435Q539.21606,918.1696,538.5952,917.6627Q537.9742,917.156,537.46533,916.25433L535.6564,913.2105Q538.87,912.2473,540.61597,910.158Q542.36176,908.06854,542.3572,904.6837Q542.3547,902.7657,541.6758,901.1311Q540.99677,899.55225,539.7541,898.36926Q538.51166,897.1866,536.8185,896.5117Q535.1819,895.8936,533.1512,895.89606 Z M555.6578,895.86646L555.69653,925.0863L561.45,925.07855L561.41144,895.8589 Z M574.949,895.84064L574.9878,925.06085L592.9253,925.03687Q597.83264,925.0302,600.5935,922.65753Q603.298,920.28467,603.29236,915.8849Q603.2894,913.74146,602.3845,911.8812Q601.4795,910.0207,599.8423,909.06384Q600.9127,908.1037,601.3623,906.80536Q601.7556,905.5079,601.75354,904.0412Q601.751,902.1796,601.01587,900.6575Q600.3369,899.19165,599.09436,898.06506Q597.9083,896.99475,596.272,896.3766Q594.6918,895.8148,592.8865,895.817 Z M614.54736,895.78845L614.58594,925.00824L638.672,924.9762L638.6642,919.11L620.3318,919.1343L620.3258,914.5089Q621.28394,913.99976,622.07324,913.6605Q622.8624,913.32074,623.82104,913.15015Q624.7798,912.97986,626.1334,912.86505Q627.43066,912.8068,629.4617,912.804L633.74854,912.7985L633.7406,906.98816L629.4536,906.99414Q626.9154,906.9973,624.5464,907.2825Q622.23413,907.5676,620.3176,908.6981L620.3082,901.59076L637.5692,901.5681L637.56177,895.75806 Z M337.81494,895.1963Q335.38956,895.19934,333.19052,895.82275Q330.9915,896.44604,329.35736,897.63275Q327.723,898.7631,326.70996,900.4004Q325.75327,902.03766,325.75586,904.0119Q325.75903,906.38116,326.6637,908.07196Q327.56824,909.7066,329.20554,910.77625Q330.78616,911.78937,332.98657,912.2378Q335.187,912.6863,337.83817,912.68274Q342.407,912.67645,344.66403,913.29407Q346.86465,913.91125,346.86728,915.8859Q346.8703,918.2548,344.3901,919.4429Q341.90988,920.63074,337.8486,920.63605Q335.87442,920.63855,334.46365,920.1328Q333.05283,919.6837,331.98013,918.95154Q330.9639,918.21954,330.17325,917.3746Q329.43878,916.5294,328.76096,915.8534L324.59253,920.08936Q327.02182,922.96313,330.52124,924.6509Q333.96423,926.2821,337.85623,926.2771Q340.95856,926.2729,343.6651,925.59216Q346.37177,924.9683,348.4005,923.668Q350.37305,922.4245,351.49857,920.4486Q352.62418,918.5296,352.6207,915.8784Q352.6184,914.12964,352.10858,912.4948Q351.5986,910.859,350.0742,909.62024Q348.54956,908.3814,345.6719,907.652Q342.85056,906.92224,338.22537,906.92834Q336.08188,906.9312,334.78436,906.7075Q333.54312,906.4833,332.86572,906.08936Q332.24478,905.7519,332.01834,905.18823Q331.84845,904.6808,331.84763,904.0038Q331.84686,903.3833,332.41003,902.7619Q332.91693,902.19714,333.7624,901.7449Q334.60806,901.34894,335.67926,901.06537Q336.69434,900.83826,337.76602,900.83716Q340.30438,900.8337,342.56125,901.3946Q344.76187,901.956,346.4559,903.36395L350.34186,898.8461Q347.1239,896.65045,344.07697,895.92114Q341.0301,895.1921,337.81494,895.1963 Z M362.1835,896.12274L362.20688,913.89105Q362.21127,917.10657,363.28604,919.4743Q364.30453,921.7857,366.22412,923.3057Q368.08768,924.77026,370.68332,925.50037Q373.22263,926.23035,376.2684,926.22626L376.3813,926.226Q379.4272,926.22217,382.02094,925.4855Q384.55826,924.7484,386.4739,923.2229Q388.33328,921.75366,389.40192,919.3832Q390.41412,917.0692,390.4099,913.854L390.38647,896.0857L384.57657,896.0932L384.6001,913.8615Q384.60254,915.72314,383.98358,916.96484Q383.42123,918.2066,382.29422,918.99786Q381.22336,919.7326,379.70093,920.073Q378.1784,920.3572,376.317,920.35974Q374.4556,920.36206,372.93216,920.0256Q371.4088,919.7456,370.27963,918.9573Q369.20703,918.2252,368.5849,916.98517Q368.01923,915.74493,368.0168,913.8837L367.99338,896.11523 Z M452.82684,895.0438Q450.40125,895.047,448.2022,895.6704Q446.00323,896.29364,444.36908,897.4804Q442.73465,898.6107,441.7216,900.24805Q440.7649,901.8853,440.7675,903.8595Q440.7706,906.22864,441.6754,907.91956Q442.58008,909.5543,444.21732,910.62396Q445.79794,911.6371,447.99847,912.0857Q450.19885,912.53394,452.85004,912.5304Q457.41885,912.524,459.67593,913.1417Q461.87668,913.75946,461.87915,915.73364Q461.88232,918.1028,459.40198,919.2905Q456.92166,920.4786,452.86044,920.4839Q450.88626,920.4866,449.47534,919.98047Q448.0646,919.5314,446.9919,918.7994Q445.97565,918.0673,445.18475,917.2222Q444.45035,916.3771,443.7728,915.70123L439.60416,919.9374Q442.03345,922.8109,445.53287,924.49854Q448.97592,926.13007,452.86795,926.1249Q455.97025,926.1208,458.67688,925.4403Q461.38354,924.8163,463.4124,923.5158Q465.385,922.27234,466.5107,920.2965Q467.63617,918.377,467.6327,915.726Q467.63043,913.9775,467.1207,912.3424Q466.61078,910.7072,465.08615,909.4681Q463.56155,908.2292,460.68375,907.49945Q457.8624,906.77,453.23715,906.77606Q451.09372,906.77875,449.796,906.5552Q448.55475,906.33105,447.87747,905.937Q447.25653,905.5994,447.03018,905.03564Q446.8603,904.5283,446.85934,903.8512Q446.85858,903.23083,447.42188,902.6097Q447.9287,902.04474,448.7741,901.5922Q449.61963,901.1965,450.6912,900.9131Q451.70624,900.68585,452.7778,900.68463Q455.31622,900.68146,457.57297,901.24225Q459.77356,901.8035,461.46768,903.2115L465.3537,898.69366Q462.13568,896.4981,459.0888,895.7688Q456.04193,895.0395,452.82684,895.0438 Z M492.19852,894.9915Q488.9271,894.99603,485.82596,896.0155Q482.72485,897.0348,480.30197,899.0121Q477.87915,900.98975,476.4165,903.86847Q474.95346,906.74744,474.95856,910.4704Q474.9634,914.1934,476.43393,917.12463Q477.84793,919.9995,480.276,922.027Q482.64767,923.998,485.75168,925.06604Q488.85538,926.07733,492.18332,926.0728Q495.56763,926.06836,498.66858,924.99243Q501.76974,923.97253,504.1924,921.8824L500.80173,917.0358Q499.11163,918.5611,496.85608,919.41016Q494.65732,920.20306,492.28842,920.20624Q490.20132,920.2089,488.16995,919.5914Q486.19482,919.0296,484.61386,917.84717Q483.0328,916.66455,482.07162,914.86096Q481.1103,913.057,481.10703,910.5753Q481.1037,908.0931,482.06006,906.2302Q482.96027,904.42395,484.53812,903.23755Q486.116,902.0507,488.08948,901.42755Q490.06296,900.861,492.2063,900.85815Q494.29327,900.85535,496.38126,901.473Q498.41245,902.03436,500.05002,903.1604L503.93594,898.6426Q501.50815,896.84064,498.46082,895.8858Q495.4138,894.9872,492.19852,894.9915 Z"/> </g> </g> <g style="fill:rgb(208,217,217); fill-opacity:1.0; stroke-linejoin: miter"> <path d="M320.31934,955.7607L359.87347,955.76135L399.42758,955.762Q399.42758,974.1776,399.42758,992.59326Q359.87347,992.59406,320.31934,992.59485Q320.31934,974.17773,320.31934,955.7607"/> </g> <g style="fill:rgb(54,72,80); fill-opacity:1.0; stroke-linejoin: miter"> <path d="M320.31934,955.7607L399.42758,955.762L399.42752,992.5931L320.31934,992.595L320.31934,955.7607"/> </g> <g style="fill:rgb(36,5,5); fill-opacity:1.0; stroke-linejoin: miter"> <path d="M1061.9236,1382.5502L1051.3165,1382.9369Q1030.5062,1384.1628,1012.9237,1389.0066Q1004.13245,1391.4285,996.1483,1394.7551Q991.56055,1395.9064,974.1929,1406.6619Q961.3728,1415.5991,954.68994,1426.439Q947.9365,1435.6365,947.603,1453.3057L1176.0107,1453.3053Q1178.8787,1425.0688,1142.8604,1402.312Q1124.2108,1392.5265,1119.5126,1391.6548Q1111.125,1388.7808,1101.9299,1386.8109Q1083.5409,1382.8717,1061.9236,1382.5502 Z"/> </g> <g style="fill:rgb(36,5,5); fill-opacity:1.0; stroke-linejoin: miter"> <path d="M992.068,1423.9537L992.068,1423.9537C952.8356,1437.8663,912.5769,1452.1973,889.37476,1452.1973L889.37476,1452.1973C877.88855,1452.1973,868.25073,1448.5231,867.324,1437.1721L867.324,1437.1721C866.45825,1426.5671,874.00464,1409.6373,881.5725,1392.3873L881.5725,1392.3873C891.48096,1369.802,901.996,1345.6013,900.5375,1327.7382L900.5375,1327.7382C900.0254,1321.4666,898.03906,1316.2139,894.17236,1312.101L894.17236,1312.101C883.13464,1300.3608,856.208,1296.4829,822.99207,1291.9434L822.99207,1291.9434C783.44385,1286.5385,736.5023,1280.2316,706.8579,1254.9985L706.8579,1254.9985C661.452,1216.3499,657.24,1134.0735,690.5803,1094.9043L690.5803,1094.9043C696.8594,1087.5276,704.5021,1081.6375,713.4907,1077.8762L713.4907,1077.8762C721.92236,1074.3479,731.405,1072.7493,741.3125,1072.7493L741.3125,1072.7493C792.1205,1072.7493,858.87573,1115.4935,858.87573,1168.4294L858.87573,1168.4294C858.87573,1174.156,858.08606,1179.9764,856.4094,1185.8397L856.4094,1185.8397C839.54834,1244.8029,732.97375,1307.6912,642.69946,1307.6912L642.69946,1307.6912C626.39185,1307.6912,610.51196,1305.6526,595.6843,1301.1403L595.6843,1301.1403C498.48715,1271.563,449.70816,1136.4858,401.6944,1004.4589C401.06995,1002.742,401.95566,1000.844,403.67258,1000.2196C405.38947,999.5953,407.28748,1000.4809,407.9118,1002.1978L407.9118,1002.1978C456.513,1135.8398,504.34903,1266.4314,597.61035,1294.8109L597.61035,1294.8109C611.71594,1299.1034,626.93335,1301.0754,642.69946,1301.0754L642.69946,1301.0754C731.4822,1301.0754,834.3408,1238.9506,850.04846,1184.0209L850.04846,1184.0209C851.556,1178.7489,852.25977,1173.5411,852.25977,1168.4294L852.25977,1168.4294C852.25977,1120.7673,790.3312,1079.365,741.3125,1079.365L741.3125,1079.365C732.0952,1079.365,723.51135,1080.8549,716.0447,1083.9792L716.0447,1083.9792C708.11755,1087.2961,701.2993,1092.5181,695.6183,1099.1924L695.6183,1099.1924C664.6793,1135.5405,668.48364,1213.6472,711.1461,1249.9608L711.1461,1249.9608C739.0134,1273.681,783.72205,1279.8993,823.88794,1285.3885L823.88794,1285.3885C855.7366,1289.7411,885.9236,1293.6688,898.9923,1307.5692L898.9923,1307.5692C904.11487,1313.0178,906.5277,1319.8064,907.13135,1327.1996L907.13135,1327.1996C908.7578,1347.1216,897.2495,1373.1202,887.63086,1395.045L887.63086,1395.045C879.6472,1413.2429,873.22546,1428.1525,873.91785,1436.6334L873.91785,1436.6334C874.3883,1442.3959,878.6301,1445.5815,889.37476,1445.5815L889.37476,1445.5815C911.1277,1445.5815,949.9812,1431.8589,989.85693,1417.7185C991.57874,1417.1078,993.4696,1418.0087,994.0802,1419.7307C994.6908,1421.4526,993.7899,1423.3434,992.068,1423.9537 Z"/> </g> <g style="fill:rgb(36,5,5); fill-opacity:1.0; stroke-linejoin: miter"> <path d="M400.05493,991.08215L400.09055,1008.7378L400.1261,1026.3936Q411.81046,1022.1099,423.49475,1017.8262L400.05493,991.08215"/> </g> <g style="fill:rgb(255,0,0); fill-opacity:1.0; stroke-linejoin: miter"> <path d="M1051.1125,1376.7374L1049.6298,1376.7915Q1046.721,1376.9629,1044.2633,1377.6399Q1043.0344,1377.9784,1041.9185,1378.4434Q1041.2771,1378.6044,1038.8495,1380.1078Q1037.0575,1381.3569,1036.1234,1382.8722Q1035.1794,1384.1577,1035.1328,1386.6277L1067.0596,1386.6276Q1067.4604,1382.6807,1062.4259,1379.4998Q1059.819,1378.132,1059.1624,1378.01Q1057.9899,1377.6084,1056.7046,1377.333Q1054.1342,1376.7823,1051.1125,1376.7374 Z"/> </g> </g> </svg>